<?xml version="1.0" standalone="no"?>
<!DOCTYPE svg PUBLIC "-//W3C//DTD SVG 20010904//EN"
 "http://www.w3.org/TR/2001/REC-SVG-20010904/DTD/svg10.dtd">
<svg version="1.0" xmlns="http://www.w3.org/2000/svg"
 width="1200.000000pt" height="1200.000000pt" viewBox="0 0 1200.000000 1200.000000"
 preserveAspectRatio="xMidYMid meet">
<metadata>
Created by potrace 1.11, written by Peter Selinger 2001-2013
</metadata>
<g transform="translate(0.000000,1200.000000) scale(0.100000,-0.100000)"
fill="#000000" stroke="none">
<path d="M0 6000 l0 -6000 6000 0 6000 0 0 6000 0 6000 -6000 0 -6000 0 0
-6000z m8980 1105 c0 -1620 -4 -2945 -8 -2945 -5 0 -7 15 -5 32 2 22 0 27 -5
16 -5 -12 -122 326 -361 1045 -194 584 -357 1066 -361 1070 -4 4 -499 -482
-1100 -1080 -601 -598 -1097 -1089 -1104 -1091 -7 -2 -7 -1 -1 5 6 4 11 13 12
18 1 10 234 487 331 682 40 79 47 101 34 98 -9 -1 -21 0 -27 4 -5 3 -13 6 -17
7 -5 1 -10 3 -13 4 -3 1 -9 4 -15 5 -5 1 -11 3 -12 5 -2 1 -12 4 -23 6 -82 19
-90 -43 89 679 89 358 205 822 256 1033 l95 382 222 0 c123 0 223 3 223 8 0 4
-7 18 -17 31 -9 13 -108 177 -220 364 l-203 339 307 312 c599 605 1171 1167
1176 1154 3 -7 6 -4 6 7 1 12 141 160 368 387 203 203 369 368 370 368 2 0 3
-1325 3 -2945z m-3015 2897 c-5 -4 -11 -11 -12 -17 -1 -8 -366 -756 -379 -776
-2 -3 2 -6 9 -6 7 0 24 -3 40 -6 26 -6 37 6 17 18 -5 3 -10 0 -10 -7 0 -10 -2
-10 -9 0 -4 8 -11 13 -15 13 -3 -1 -6 1 -6 4 0 28 1 29 11 15 10 -13 10 -13 6
1 -6 18 58 157 65 143 3 -5 3 -3 2 4 -2 6 10 34 26 61 15 27 25 53 22 57 -4 4
-1 4 5 0 9 -5 11 -2 6 10 -5 13 -3 16 10 11 9 -3 17 -2 17 3 0 6 -6 10 -12 11
-10 0 -10 2 0 6 6 2 10 9 6 14 -3 5 -1 9 5 9 5 0 12 -6 14 -12 3 -8 6 -6 6 5
1 9 -5 17 -11 18 -10 0 -10 2 0 6 6 2 9 10 6 15 -5 7 -2 8 6 3 10 -6 12 -4 7
9 -5 11 -3 15 5 10 7 -5 9 -2 5 8 -7 19 21 18 32 -1 6 -10 10 -8 15 5 5 13 9
15 18 6 9 -9 9 -15 0 -24 -16 -16 -15 -31 1 -22 9 6 9 5 0 -7 -7 -9 -14 -29
-16 -45 -2 -17 -7 -35 -11 -42 -4 -7 -5 -16 -2 -20 2 -4 0 -14 -6 -22 -8 -13
-9 -13 -5 1 3 9 1 22 -4 30 -6 10 -9 2 -9 -24 0 -26 4 -36 12 -31 7 4 8 3 4
-5 -4 -6 -12 -9 -17 -6 -5 4 -9 2 -9 -4 0 -5 5 -13 10 -16 6 -4 8 -11 4 -16
-3 -5 -10 -7 -15 -4 -12 8 -11 -2 2 -27 7 -13 7 -18 1 -14 -6 3 -13 2 -16 -3
-4 -5 -2 -13 4 -16 7 -4 7 -11 2 -18 -5 -7 -10 -19 -10 -27 -1 -22 -10 -58
-17 -71 -4 -6 -9 -30 -11 -54 -2 -24 -85 -367 -183 -762 -98 -395 -212 -852
-252 -1015 l-74 -298 -222 0 c-123 0 -223 -3 -223 -8 0 -4 7 -17 15 -29 9 -12
108 -176 221 -364 l205 -342 -292 -296 c-384 -390 -510 -512 -522 -504 -6 3
-7 2 -4 -4 3 -5 -144 -159 -327 -342 -216 -215 -335 -329 -339 -320 -3 9 -6 7
-6 -6 -1 -13 -141 -160 -371 -390 l-370 -370 0 2948 c0 1621 4 2947 8 2947 5
0 7 -15 5 -32 -2 -22 0 -27 5 -16 5 12 122 -326 361 -1045 194 -584 357 -1066
361 -1070 4 -5 500 482 1101 1082 602 600 1099 1090 1104 1090 7 1 7 -2 0 -7z
m305 -5021 c0 9 3 10 8 3 4 -6 15 -10 24 -8 10 1 20 -2 24 -7 3 -5 10 -7 15
-3 6 3 13 -3 16 -15 3 -11 9 -18 14 -15 5 3 6 11 2 17 -5 8 -2 8 9 0 8 -7 18
-9 22 -5 5 4 -1 -10 -13 -30 -11 -21 -19 -38 -16 -38 4 0 -24 -55 -69 -137
-13 -23 -21 -45 -17 -49 3 -4 0 -4 -7 0 -9 6 -12 2 -10 -10 2 -12 -2 -18 -10
-16 -7 1 -12 -3 -11 -10 1 -7 -4 -26 -11 -43 -7 -16 -14 -32 -14 -35 -1 -3
-10 -19 -21 -37 -17 -29 -20 -30 -33 -15 -11 14 -13 15 -9 1 3 -9 -1 -16 -8
-16 -7 0 -11 7 -8 16 3 11 0 10 -11 -4 -16 -19 -16 -19 -12 5 2 14 5 25 6 25
1 0 3 8 5 19 2 10 8 23 14 29 18 18 12 31 -6 16 -16 -13 -17 -12 -5 3 8 9 10
23 6 29 -4 8 -3 9 4 5 7 -4 13 0 13 11 4 48 7 78 9 83 2 3 4 10 5 15 1 6 7 23
14 39 6 16 10 35 7 42 -3 8 -1 16 5 20 6 3 8 13 5 21 -3 8 -1 11 4 8 8 -5 15
21 12 47 -1 3 5 12 13 18 21 18 19 35 -2 19 -17 -13 -17 -12 -4 4 14 18 16 18
28 1 10 -13 13 -14 13 -3z m-2900 -2059 c47 -67 87 -122 90 -122 3 0 90 120
194 265 104 146 191 265 193 265 2 0 3 -178 3 -395 l0 -395 -60 0 -60 0 -2
221 -3 220 -130 -185 c-71 -103 -133 -186 -136 -186 -4 0 -62 77 -129 170 -67
94 -126 170 -131 170 -5 0 -9 -91 -9 -205 l0 -205 -55 0 -55 0 0 397 0 397
103 -145 c56 -80 140 -200 187 -267z m3023 368 c31 -12 57 -25 57 -29 0 -16
-32 -101 -38 -101 -4 0 -36 9 -70 20 -214 67 -382 -45 -383 -254 -1 -117 40
-190 132 -241 47 -25 65 -29 134 -30 44 0 92 3 108 8 26 7 27 10 27 77 l0 70
-70 0 -70 0 0 60 0 60 135 0 135 0 0 -160 0 -160 -32 -20 c-79 -48 -218 -70
-320 -51 -128 25 -225 99 -277 210 -23 50 -26 68 -26 166 1 133 22 197 92 275
85 95 182 133 323 126 55 -2 105 -11 143 -26z m-1896 5 c117 -35 178 -117 176
-236 -1 -84 -27 -144 -80 -189 l-40 -34 93 -148 93 -148 -72 0 -72 0 -85 135
-85 135 -62 0 -63 0 0 -135 0 -135 -60 0 -60 0 0 385 0 385 133 0 c89 0 150
-5 184 -15z m605 -262 c3 -275 3 -278 27 -312 42 -59 138 -87 208 -60 42 15
92 68 103 109 5 19 10 149 10 288 l0 252 61 0 60 0 -3 -287 -3 -288 -31 -55
c-117 -207 -439 -196 -538 19 -19 43 -21 67 -24 329 l-4 282 66 0 65 0 3 -277z
m2198 217 l0 -60 -195 0 -195 0 0 -100 0 -100 170 0 170 0 0 -60 0 -60 -170 0
-170 0 0 -105 0 -105 200 0 200 0 0 -60 0 -60 -260 0 -260 0 0 385 0 385 255
0 255 0 0 -60z m640 34 c89 -37 88 -36 62 -89 -18 -37 -26 -45 -40 -39 -104
45 -169 54 -227 30 -93 -39 -66 -138 51 -187 136 -57 178 -83 206 -129 119
-193 -64 -386 -312 -329 -58 13 -160 59 -160 72 0 7 31 65 46 86 2 1 28 -9 59
-24 138 -65 275 -30 275 71 0 54 -45 95 -152 139 -111 46 -170 97 -188 164
-29 108 25 205 136 247 52 19 183 13 244 -12z m480 -134 l0 -160 190 0 190 0
0 160 0 160 60 0 60 0 0 -385 0 -385 -60 0 -60 0 0 165 0 165 -190 0 -190 0 0
-165 0 -165 -60 0 -60 0 0 385 0 385 60 0 60 0 0 -160z"/>
<path d="M8242 9235 c0 -16 2 -22 5 -12 2 9 2 23 0 30 -3 6 -5 -1 -5 -18z"/>
<path d="M8252 9165 c0 -16 2 -22 5 -12 2 9 2 23 0 30 -3 6 -5 -1 -5 -18z"/>
<path d="M8262 9095 c0 -16 2 -22 5 -12 2 9 2 23 0 30 -3 6 -5 -1 -5 -18z"/>
<path d="M8272 9025 c0 -16 2 -22 5 -12 2 9 2 23 0 30 -3 6 -5 -1 -5 -18z"/>
<path d="M8282 8955 c0 -16 2 -22 5 -12 2 9 2 23 0 30 -3 6 -5 -1 -5 -18z"/>
<path d="M8292 8885 c0 -16 2 -22 5 -12 2 9 2 23 0 30 -3 6 -5 -1 -5 -18z"/>
<path d="M8302 8815 c0 -16 2 -22 5 -12 2 9 2 23 0 30 -3 6 -5 -1 -5 -18z"/>
<path d="M8312 8745 c0 -16 2 -22 5 -12 2 9 2 23 0 30 -3 6 -5 -1 -5 -18z"/>
<path d="M8322 8675 c0 -16 2 -22 5 -12 2 9 2 23 0 30 -3 6 -5 -1 -5 -18z"/>
<path d="M8332 8605 c0 -16 2 -22 5 -12 2 9 2 23 0 30 -3 6 -5 -1 -5 -18z"/>
<path d="M8342 8535 c0 -16 2 -22 5 -12 2 9 2 23 0 30 -3 6 -5 -1 -5 -18z"/>
<path d="M8352 8465 c0 -16 2 -22 5 -12 2 9 2 23 0 30 -3 6 -5 -1 -5 -18z"/>
<path d="M8362 8395 c0 -16 2 -22 5 -12 2 9 2 23 0 30 -3 6 -5 -1 -5 -18z"/>
<path d="M8372 8325 c0 -16 2 -22 5 -12 2 9 2 23 0 30 -3 6 -5 -1 -5 -18z"/>
<path d="M8382 8255 c0 -16 2 -22 5 -12 2 9 2 23 0 30 -3 6 -5 -1 -5 -18z"/>
<path d="M8392 8185 c0 -16 2 -22 5 -12 2 9 2 23 0 30 -3 6 -5 -1 -5 -18z"/>
<path d="M8402 8115 c0 -16 2 -22 5 -12 2 9 2 23 0 30 -3 6 -5 -1 -5 -18z"/>
<path d="M8412 8045 c0 -16 2 -22 5 -12 2 9 2 23 0 30 -3 6 -5 -1 -5 -18z"/>
<path d="M8422 7975 c0 -16 2 -22 5 -12 2 9 2 23 0 30 -3 6 -5 -1 -5 -18z"/>
<path d="M8432 7905 c0 -16 2 -22 5 -12 2 9 2 23 0 30 -3 6 -5 -1 -5 -18z"/>
<path d="M8442 7835 c0 -16 2 -22 5 -12 2 9 2 23 0 30 -3 6 -5 -1 -5 -18z"/>
<path d="M8452 7765 c0 -16 2 -22 5 -12 2 9 2 23 0 30 -3 6 -5 -1 -5 -18z"/>
<path d="M8462 7695 c0 -16 2 -22 5 -12 2 9 2 23 0 30 -3 6 -5 -1 -5 -18z"/>
<path d="M8472 7625 c0 -16 2 -22 5 -12 2 9 2 23 0 30 -3 6 -5 -1 -5 -18z"/>
<path d="M8612 6645 c0 -16 2 -22 5 -12 2 9 2 23 0 30 -3 6 -5 -1 -5 -18z"/>
<path d="M8622 6575 c0 -16 2 -22 5 -12 2 9 2 23 0 30 -3 6 -5 -1 -5 -18z"/>
<path d="M8632 6500 c0 -19 2 -27 5 -17 2 9 2 25 0 35 -3 9 -5 1 -5 -18z"/>
<path d="M8642 6435 c0 -16 2 -22 5 -12 2 9 2 23 0 30 -3 6 -5 -1 -5 -18z"/>
<path d="M8652 6365 c0 -16 2 -22 5 -12 2 9 2 23 0 30 -3 6 -5 -1 -5 -18z"/>
<path d="M8662 6295 c0 -16 2 -22 5 -12 2 9 2 23 0 30 -3 6 -5 -1 -5 -18z"/>
<path d="M8672 6220 c0 -19 2 -27 5 -17 2 9 2 25 0 35 -3 9 -5 1 -5 -18z"/>
<path d="M8682 6155 c0 -16 2 -22 5 -12 2 9 2 23 0 30 -3 6 -5 -1 -5 -18z"/>
<path d="M8692 6085 c0 -16 2 -22 5 -12 2 9 2 23 0 30 -3 6 -5 -1 -5 -18z"/>
<path d="M8702 6015 c0 -16 2 -22 5 -12 2 9 2 23 0 30 -3 6 -5 -1 -5 -18z"/>
<path d="M8712 5945 c0 -16 2 -22 5 -12 2 9 2 23 0 30 -3 6 -5 -1 -5 -18z"/>
<path d="M8722 5875 c0 -16 2 -22 5 -12 2 9 2 23 0 30 -3 6 -5 -1 -5 -18z"/>
<path d="M8732 5800 c0 -19 2 -27 5 -17 2 9 2 25 0 35 -3 9 -5 1 -5 -18z"/>
<path d="M8742 5735 c0 -16 2 -22 5 -12 2 9 2 23 0 30 -3 6 -5 -1 -5 -18z"/>
<path d="M8752 5665 c0 -16 2 -22 5 -12 2 9 2 23 0 30 -3 6 -5 -1 -5 -18z"/>
<path d="M8762 5595 c0 -16 2 -22 5 -12 2 9 2 23 0 30 -3 6 -5 -1 -5 -18z"/>
<path d="M8772 5525 c0 -16 2 -22 5 -12 2 9 2 23 0 30 -3 6 -5 -1 -5 -18z"/>
<path d="M8782 5455 c0 -16 2 -22 5 -12 2 9 2 23 0 30 -3 6 -5 -1 -5 -18z"/>
<path d="M8792 5385 c0 -16 2 -22 5 -12 2 9 2 23 0 30 -3 6 -5 -1 -5 -18z"/>
<path d="M8802 5315 c0 -16 2 -22 5 -12 2 9 2 23 0 30 -3 6 -5 -1 -5 -18z"/>
<path d="M8812 5245 c0 -16 2 -22 5 -12 2 9 2 23 0 30 -3 6 -5 -1 -5 -18z"/>
<path d="M8822 5175 c0 -16 2 -22 5 -12 2 9 2 23 0 30 -3 6 -5 -1 -5 -18z"/>
<path d="M8832 5105 c0 -16 2 -22 5 -12 2 9 2 23 0 30 -3 6 -5 -1 -5 -18z"/>
<path d="M8842 5035 c0 -16 2 -22 5 -12 2 9 2 23 0 30 -3 6 -5 -1 -5 -18z"/>
<path d="M8852 4965 c0 -16 2 -22 5 -12 2 9 2 23 0 30 -3 6 -5 -1 -5 -18z"/>
<path d="M8862 4895 c0 -16 2 -22 5 -12 2 9 2 23 0 30 -3 6 -5 -1 -5 -18z"/>
<path d="M8872 4825 c0 -16 2 -22 5 -12 2 9 2 23 0 30 -3 6 -5 -1 -5 -18z"/>
<path d="M8882 4755 c0 -16 2 -22 5 -12 2 9 2 23 0 30 -3 6 -5 -1 -5 -18z"/>
<path d="M8892 4685 c0 -16 2 -22 5 -12 2 9 2 23 0 30 -3 6 -5 -1 -5 -18z"/>
<path d="M8902 4615 c0 -16 2 -22 5 -12 2 9 2 23 0 30 -3 6 -5 -1 -5 -18z"/>
<path d="M8912 4540 c0 -19 2 -27 5 -17 2 9 2 25 0 35 -3 9 -5 1 -5 -18z"/>
<path d="M8922 4475 c0 -16 2 -22 5 -12 2 9 2 23 0 30 -3 6 -5 -1 -5 -18z"/>
<path d="M8932 4400 c0 -19 2 -27 5 -17 2 9 2 25 0 35 -3 9 -5 1 -5 -18z"/>
<path d="M8942 4335 c0 -16 2 -22 5 -12 2 9 2 23 0 30 -3 6 -5 -1 -5 -18z"/>
<path d="M8952 4265 c0 -16 2 -22 5 -12 2 9 2 23 0 30 -3 6 -5 -1 -5 -18z"/>
<path d="M6079 4213 c-13 -16 -12 -17 4 -4 9 7 17 15 17 17 0 8 -8 3 -21 -13z"/>
<path d="M5909 9943 c-13 -16 -12 -17 4 -4 9 7 17 15 17 17 0 8 -8 3 -21 -13z"/>
<path d="M3042 9895 c0 -16 2 -22 5 -12 2 9 2 23 0 30 -3 6 -5 -1 -5 -18z"/>
<path d="M3052 9825 c0 -16 2 -22 5 -12 2 9 2 23 0 30 -3 6 -5 -1 -5 -18z"/>
<path d="M5819 9823 c-13 -16 -12 -17 4 -4 9 7 17 15 17 17 0 8 -8 3 -21 -13z"/>
<path d="M5789 9783 c-13 -16 -12 -17 4 -4 16 13 21 21 13 21 -2 0 -10 -8 -17
-17z"/>
<path d="M3062 9755 c0 -16 2 -22 5 -12 2 9 2 23 0 30 -3 6 -5 -1 -5 -18z"/>
<path d="M5759 9743 c-13 -16 -12 -17 4 -4 9 7 17 15 17 17 0 8 -8 3 -21 -13z"/>
<path d="M3072 9685 c0 -16 2 -22 5 -12 2 9 2 23 0 30 -3 6 -5 -1 -5 -18z"/>
<path d="M3082 9615 c0 -16 2 -22 5 -12 2 9 2 23 0 30 -3 6 -5 -1 -5 -18z"/>
<path d="M5810 9613 c-7 -15 -14 -37 -14 -48 -1 -11 -6 -19 -12 -18 -7 1 -11
-5 -10 -15 0 -9 -5 -16 -12 -14 -8 1 -11 -2 -8 -7 4 -5 2 -12 -4 -16 -15 -9
-55 -87 -55 -107 0 -10 -4 -17 -9 -17 -12 0 -56 -90 -60 -123 -2 -15 1 -26 7
-25 6 1 16 -8 22 -21 11 -20 13 -21 19 -7 9 23 8 27 -6 19 -7 -5 -8 -3 -3 6 6
9 4 11 -5 5 -9 -6 -11 -4 -5 5 5 7 4 11 -1 7 -5 -3 -9 8 -9 23 -1 16 3 26 9
23 5 -4 6 -1 1 7 -5 8 -4 11 3 6 7 -4 10 1 7 14 -3 13 0 18 7 14 7 -5 8 -2 3
6 -5 9 -4 11 4 6 6 -4 11 -4 10 1 -3 20 2 25 16 13 18 -15 19 -3 5 35 -7 19
-7 24 2 19 7 -5 8 -3 3 6 -6 9 -4 11 5 5 7 -5 11 -4 8 1 -4 5 0 23 7 39 7 17
14 24 14 17 1 -7 6 -10 12 -7 6 4 8 14 5 22 -3 8 -1 11 4 8 6 -3 10 0 10 7 0
7 7 21 14 31 12 16 14 15 14 -9 0 -19 -3 -22 -9 -13 -6 9 -7 -3 -4 -30 3 -25
0 -49 -6 -57 -6 -7 -7 -19 -3 -25 4 -7 3 -9 -3 -6 -7 5 -10 -4 -9 -22 1 -17
-2 -28 -6 -25 -4 3 -8 -2 -8 -11 0 -10 5 -13 13 -9 9 6 9 4 1 -7 -7 -8 -11
-31 -10 -51 2 -22 -2 -35 -8 -31 -5 4 -7 0 -3 -9 3 -9 3 -19 -1 -23 -4 -4 -7
-11 -7 -17 0 -6 -8 -12 -18 -14 -9 -1 -15 2 -12 6 3 5 0 12 -6 15 -7 5 -10 0
-7 -11 2 -11 8 -18 13 -17 6 1 15 -3 21 -8 7 -6 15 5 24 34 18 55 21 69 22 87
0 8 5 20 10 27 5 7 5 14 -2 18 -6 3 -7 12 -3 18 5 7 8 21 8 32 0 12 6 19 14
17 11 -2 12 0 4 10 -7 9 -8 31 -2 67 4 29 7 71 5 92 -2 21 1 36 5 33 5 -3 6 3
3 13 -4 13 -3 14 4 5 5 -7 7 -37 5 -65 -2 -28 -1 -48 3 -44 8 7 12 28 15 80 1
15 6 30 11 33 4 3 8 10 8 17 0 6 -6 2 -14 -8 -12 -17 -14 -17 -23 -1 -8 15
-11 14 -23 -11z"/>
<path d="M3092 9545 c0 -16 2 -22 5 -12 2 9 2 23 0 30 -3 6 -5 -1 -5 -18z"/>
<path d="M3102 9475 c0 -16 2 -22 5 -12 2 9 2 23 0 30 -3 6 -5 -1 -5 -18z"/>
<path d="M5772 9470 c-7 -12 -17 -18 -22 -15 -6 3 -11 -1 -11 -9 -2 -25 -4
-30 -12 -44 -5 -7 -5 -21 -2 -32 9 -29 -3 -44 -23 -28 -10 7 -14 8 -9 3 4 -4
0 -17 -10 -27 -9 -10 -12 -18 -8 -18 4 0 1 -8 -9 -18 -15 -18 -15 -20 3 -44
12 -15 18 -34 15 -49 -4 -21 -3 -22 5 -4 12 26 14 76 2 57 -7 -11 -9 -11 -14
2 -3 8 -1 18 4 22 6 3 9 15 6 25 -3 11 -1 16 5 13 5 -3 8 -15 5 -25 -3 -10 -1
-22 5 -25 7 -4 9 8 6 34 -2 22 1 38 5 35 5 -3 6 -31 3 -63 -5 -45 -3 -60 9
-70 9 -7 15 -9 14 -4 -1 5 0 11 1 14 4 11 10 58 14 110 5 65 12 98 25 114 7 8
13 66 7 66 -1 0 -7 -9 -14 -20z m4 -24 c-1 -8 -8 -21 -15 -30 -7 -8 -9 -21 -5
-27 5 -8 3 -9 -6 -4 -9 5 -10 1 -6 -16 6 -20 5 -21 -4 -7 -8 13 -8 23 0 38 6
11 8 20 4 20 -4 0 1 9 11 20 21 24 24 24 21 6z m-38 -190 c-4 -16 -5 -32 -3
-37 3 -4 1 -10 -4 -13 -6 -4 -8 7 -5 26 3 18 6 51 6 73 0 37 1 38 7 10 4 -16
4 -43 -1 -59z"/>
<path d="M3112 9405 c0 -16 2 -22 5 -12 2 9 2 23 0 30 -3 6 -5 -1 -5 -18z"/>
<path d="M3122 9335 c0 -16 2 -22 5 -12 2 9 2 23 0 30 -3 6 -5 -1 -5 -18z"/>
<path d="M3132 9265 c0 -16 2 -22 5 -12 2 9 2 23 0 30 -3 6 -5 -1 -5 -18z"/>
<path d="M3142 9195 c0 -16 2 -22 5 -12 2 9 2 23 0 30 -3 6 -5 -1 -5 -18z"/>
<path d="M3152 9125 c0 -16 2 -22 5 -12 2 9 2 23 0 30 -3 6 -5 -1 -5 -18z"/>
<path d="M3162 9055 c0 -16 2 -22 5 -12 2 9 2 23 0 30 -3 6 -5 -1 -5 -18z"/>
<path d="M3172 8985 c0 -16 2 -22 5 -12 2 9 2 23 0 30 -3 6 -5 -1 -5 -18z"/>
<path d="M3182 8915 c0 -16 2 -22 5 -12 2 9 2 23 0 30 -3 6 -5 -1 -5 -18z"/>
<path d="M3192 8845 c0 -16 2 -22 5 -12 2 9 2 23 0 30 -3 6 -5 -1 -5 -18z"/>
<path d="M3202 8775 c0 -16 2 -22 5 -12 2 9 2 23 0 30 -3 6 -5 -1 -5 -18z"/>
<path d="M3212 8705 c0 -16 2 -22 5 -12 2 9 2 23 0 30 -3 6 -5 -1 -5 -18z"/>
<path d="M3222 8635 c0 -16 2 -22 5 -12 2 9 2 23 0 30 -3 6 -5 -1 -5 -18z"/>
<path d="M3232 8565 c0 -16 2 -22 5 -12 2 9 2 23 0 30 -3 6 -5 -1 -5 -18z"/>
<path d="M3242 8495 c0 -16 2 -22 5 -12 2 9 2 23 0 30 -3 6 -5 -1 -5 -18z"/>
<path d="M3252 8425 c0 -16 2 -22 5 -12 2 9 2 23 0 30 -3 6 -5 -1 -5 -18z"/>
<path d="M3262 8355 c0 -16 2 -22 5 -12 2 9 2 23 0 30 -3 6 -5 -1 -5 -18z"/>
<path d="M3272 8285 c0 -16 2 -22 5 -12 2 9 2 23 0 30 -3 6 -5 -1 -5 -18z"/>
<path d="M3282 8215 c0 -16 2 -22 5 -12 2 9 2 23 0 30 -3 6 -5 -1 -5 -18z"/>
<path d="M3292 8145 c0 -16 2 -22 5 -12 2 9 2 23 0 30 -3 6 -5 -1 -5 -18z"/>
<path d="M3302 8075 c0 -16 2 -22 5 -12 2 9 2 23 0 30 -3 6 -5 -1 -5 -18z"/>
<path d="M3312 8005 c0 -16 2 -22 5 -12 2 9 2 23 0 30 -3 6 -5 -1 -5 -18z"/>
<path d="M3322 7935 c0 -16 2 -22 5 -12 2 9 2 23 0 30 -3 6 -5 -1 -5 -18z"/>
<path d="M3332 7865 c0 -16 2 -22 5 -12 2 9 2 23 0 30 -3 6 -5 -1 -5 -18z"/>
<path d="M3342 7795 c0 -16 2 -22 5 -12 2 9 2 23 0 30 -3 6 -5 -1 -5 -18z"/>
<path d="M3352 7725 c0 -16 2 -22 5 -12 2 9 2 23 0 30 -3 6 -5 -1 -5 -18z"/>
<path d="M3362 7655 c0 -16 2 -22 5 -12 2 9 2 23 0 30 -3 6 -5 -1 -5 -18z"/>
<path d="M3372 7585 c0 -16 2 -22 5 -12 2 9 2 23 0 30 -3 6 -5 -1 -5 -18z"/>
<path d="M3382 7515 c0 -16 2 -22 5 -12 2 9 2 23 0 30 -3 6 -5 -1 -5 -18z"/>
<path d="M3522 6535 c0 -16 2 -22 5 -12 2 9 2 23 0 30 -3 6 -5 -1 -5 -18z"/>
<path d="M3532 6465 c0 -16 2 -22 5 -12 2 9 2 23 0 30 -3 6 -5 -1 -5 -18z"/>
<path d="M3542 6395 c0 -16 2 -22 5 -12 2 9 2 23 0 30 -3 6 -5 -1 -5 -18z"/>
<path d="M3552 6325 c0 -16 2 -22 5 -12 2 9 2 23 0 30 -3 6 -5 -1 -5 -18z"/>
<path d="M3562 6255 c0 -16 2 -22 5 -12 2 9 2 23 0 30 -3 6 -5 -1 -5 -18z"/>
<path d="M3572 6185 c0 -16 2 -22 5 -12 2 9 2 23 0 30 -3 6 -5 -1 -5 -18z"/>
<path d="M3582 6115 c0 -16 2 -22 5 -12 2 9 2 23 0 30 -3 6 -5 -1 -5 -18z"/>
<path d="M3592 6045 c0 -16 2 -22 5 -12 2 9 2 23 0 30 -3 6 -5 -1 -5 -18z"/>
<path d="M3602 5975 c0 -16 2 -22 5 -12 2 9 2 23 0 30 -3 6 -5 -1 -5 -18z"/>
<path d="M3612 5905 c0 -16 2 -22 5 -12 2 9 2 23 0 30 -3 6 -5 -1 -5 -18z"/>
<path d="M3622 5835 c0 -16 2 -22 5 -12 2 9 2 23 0 30 -3 6 -5 -1 -5 -18z"/>
<path d="M3632 5765 c0 -16 2 -22 5 -12 2 9 2 23 0 30 -3 6 -5 -1 -5 -18z"/>
<path d="M3642 5695 c0 -16 2 -22 5 -12 2 9 2 23 0 30 -3 6 -5 -1 -5 -18z"/>
<path d="M3652 5625 c0 -16 2 -22 5 -12 2 9 2 23 0 30 -3 6 -5 -1 -5 -18z"/>
<path d="M3662 5555 c0 -16 2 -22 5 -12 2 9 2 23 0 30 -3 6 -5 -1 -5 -18z"/>
<path d="M3672 5485 c0 -16 2 -22 5 -12 2 9 2 23 0 30 -3 6 -5 -1 -5 -18z"/>
<path d="M3682 5415 c0 -16 2 -22 5 -12 2 9 2 23 0 30 -3 6 -5 -1 -5 -18z"/>
<path d="M3692 5345 c0 -16 2 -22 5 -12 2 9 2 23 0 30 -3 6 -5 -1 -5 -18z"/>
<path d="M3702 5275 c0 -16 2 -22 5 -12 2 9 2 23 0 30 -3 6 -5 -1 -5 -18z"/>
<path d="M3712 5205 c0 -16 2 -22 5 -12 2 9 2 23 0 30 -3 6 -5 -1 -5 -18z"/>
<path d="M3722 5135 c0 -16 2 -22 5 -12 2 9 2 23 0 30 -3 6 -5 -1 -5 -18z"/>
<path d="M3732 5065 c0 -16 2 -22 5 -12 2 9 2 23 0 30 -3 6 -5 -1 -5 -18z"/>
<path d="M3742 4995 c0 -16 2 -22 5 -12 2 9 2 23 0 30 -3 6 -5 -1 -5 -18z"/>
<path d="M3752 4925 c0 -16 2 -22 5 -12 2 9 2 23 0 30 -3 6 -5 -1 -5 -18z"/>
<path d="M6242 4956 c-3 -6 -8 -22 -10 -35 -2 -14 -8 -34 -15 -45 -6 -12 -10
-26 -9 -32 1 -7 -3 -25 -9 -40 -7 -16 -13 -33 -14 -39 -1 -5 -3 -12 -4 -15 -2
-4 -6 -36 -14 -110 -2 -14 -8 -35 -15 -47 -7 -13 -10 -23 -6 -23 3 0 1 -6 -5
-14 -10 -12 -9 -14 6 -11 10 1 23 -2 30 -7 8 -6 16 -2 24 14 8 13 14 25 14 28
1 3 8 19 15 35 7 17 14 37 14 45 1 8 7 14 14 12 8 -1 11 2 7 8 -3 5 2 22 12
37 42 63 95 163 86 163 -3 0 -1 6 4 13 15 19 24 49 13 42 -6 -3 -10 -14 -11
-23 0 -9 -6 -2 -12 15 -7 18 -15 33 -19 33 -5 0 -9 0 -10 1 -25 7 -38 5 -38
-8 0 -13 2 -13 17 -2 14 12 16 12 8 0 -5 -9 -4 -12 2 -8 6 4 16 0 23 -8 7 -8
10 -15 6 -15 -3 0 -1 -12 4 -26 6 -14 6 -23 2 -20 -5 3 -9 0 -9 -7 -1 -22 -32
-83 -33 -64 0 10 -5 15 -10 12 -6 -4 -8 -10 -5 -15 3 -5 1 -12 -5 -15 -6 -4
-8 -16 -5 -28 5 -18 4 -19 -5 -7 -10 12 -11 11 -7 -8 3 -12 2 -20 -3 -17 -11
7 -33 -22 -26 -34 4 -5 1 -13 -5 -17 -8 -5 -9 -3 -4 6 5 9 4 11 -4 6 -6 -4 -9
-18 -7 -32 3 -15 1 -22 -6 -18 -6 4 -8 -2 -4 -17 7 -24 7 -24 -8 1 -10 16 -15
20 -16 10 0 -9 4 -20 9 -25 5 -6 5 -19 1 -30 -6 -14 -9 -15 -10 -5 -1 8 -4 24
-6 35 -9 43 6 162 25 190 4 6 8 24 10 40 4 39 11 46 11 11 0 -15 4 -25 9 -21
6 3 6 17 1 34 -4 15 -4 34 0 42 5 7 7 16 4 20 -2 4 0 10 6 14 6 4 7 12 3 18
-4 7 0 6 10 -2 15 -11 17 -11 17 1 0 17 -28 20 -38 4z m-66 -355 c-4 -5 -2
-21 4 -36 7 -17 7 -24 0 -20 -6 3 -10 13 -10 21 0 9 -5 12 -11 8 -8 -4 -8 0 0
15 7 11 14 21 17 21 3 0 3 -4 0 -9z"/>
<path d="M6259 4936 c0 -1 -2 -9 -4 -19 -2 -11 -6 -21 -8 -24 -3 -2 -1 -17 3
-33 9 -30 -8 -58 -25 -42 -5 4 -5 2 -1 -5 3 -6 2 -14 -3 -17 -9 -6 -23 -65
-26 -112 -1 -11 -5 -25 -8 -31 -4 -7 0 -10 10 -8 10 1 17 8 15 15 -1 7 8 26
20 44 22 29 51 83 52 98 1 3 4 10 9 14 11 11 9 36 -3 29 -6 -4 -8 -10 -5 -15
3 -5 1 -12 -5 -15 -6 -4 -10 -3 -9 2 1 4 0 10 -1 13 -1 3 -3 26 -4 52 -1 37 1
45 11 36 10 -8 13 -7 13 4 0 11 -24 21 -31 14z m3 -128 c-4 -16 -2 -19 9 -13
8 5 6 -1 -4 -12 -10 -12 -20 -30 -22 -40 -1 -10 -8 -17 -14 -15 -6 1 -11 -7
-11 -17 0 -11 -4 -23 -10 -26 -5 -3 -8 0 -5 7 2 7 7 27 10 43 3 17 7 36 9 43
1 7 6 12 11 12 5 -1 12 8 17 19 10 28 18 27 10 -1z"/>
<path d="M6235 4782 c2 -3 0 -13 -5 -23 -7 -12 -6 -20 2 -25 7 -4 10 -3 5 1
-4 5 -1 18 7 30 12 19 12 22 0 22 -8 0 -12 -2 -9 -5z"/>
<path d="M6297 4918 c-3 -11 -9 -18 -14 -15 -5 3 -9 -10 -9 -29 0 -26 2 -31
13 -23 10 9 15 6 21 -11 l8 -22 10 24 c17 36 12 91 -8 94 -9 1 -18 -7 -21 -18z
m27 -25 c-3 -49 -2 -47 -17 -34 -8 6 -17 8 -21 4 -13 -13 7 32 22 50 8 9 16
17 17 17 1 0 1 -17 -1 -37z"/>
<path d="M6303 4894 c-3 -8 -2 -19 3 -24 5 -5 10 1 10 16 2 27 -4 31 -13 8z"/>
<path d="M4300 3060 l0 -130 79 0 c97 0 138 23 161 88 13 37 13 47 0 84 -23
65 -64 88 -161 88 l-79 0 0 -130z"/>
</g>
</svg>
