<?xml version="1.0" standalone="no"?>
<!DOCTYPE svg PUBLIC "-//W3C//DTD SVG 20010904//EN"
 "http://www.w3.org/TR/2001/REC-SVG-20010904/DTD/svg10.dtd">
<svg version="1.0" xmlns="http://www.w3.org/2000/svg"
 width="700.000000pt" height="700.000000pt" viewBox="0 0 700.000000 700.000000"
 preserveAspectRatio="xMidYMid meet">
<metadata>
Created by potrace 1.11, written by Peter Selinger 2001-2013
</metadata>
<g transform="translate(0.000000,700.000000) scale(0.100000,-0.100000)"
fill="#000000" stroke="none">
<path d="M3037 6394 c-42 -23 -25 -29 37 -14 45 10 63 11 100 0 50 -14 95 -6
64 11 -9 5 -52 11 -95 14 -59 4 -85 1 -106 -11z"/>
<path d="M3425 6392 c-22 -8 -66 -25 -97 -37 -45 -18 -58 -20 -58 -9 0 17 5
18 -58 -6 -45 -17 -58 -18 -95 -8 -51 13 -148 3 -307 -33 -25 -6 -52 -12 -60
-14 -36 -8 -272 -55 -277 -55 -3 0 -3 -7 0 -14 5 -11 -5 -17 -39 -22 -24 -3
-47 -10 -50 -15 -11 -18 -36 -10 -31 11 5 18 3 18 -18 4 -13 -8 -54 -26 -91
-40 -38 -13 -78 -33 -89 -44 -15 -14 -24 -17 -32 -9 -7 7 -15 5 -27 -6 -9 -9
-16 -13 -16 -8 0 5 5 14 12 21 9 9 9 12 0 12 -7 0 -29 -17 -48 -37 -34 -35
-36 -40 -31 -88 5 -51 5 -52 -28 -64 -21 -7 -39 -23 -47 -41 -7 -17 -19 -30
-25 -30 -16 0 -17 12 -1 28 23 23 -10 12 -69 -23 -57 -34 -72 -47 -175 -155
-29 -31 -74 -73 -100 -94 -27 -22 -48 -43 -48 -48 0 -5 4 -6 10 -3 5 3 10 0
10 -8 0 -15 -73 -87 -89 -87 -5 0 -45 -34 -87 -75 -42 -41 -81 -75 -86 -75 -4
0 -8 -7 -8 -15 0 -8 6 -15 14 -15 21 0 27 -28 10 -45 -9 -9 -42 -33 -74 -55
-55 -37 -73 -59 -74 -89 -1 -10 -136 -68 -164 -71 -2 0 0 10 3 23 6 18 2 16
-24 -12 -36 -40 -38 -52 -11 -69 11 -7 20 -19 20 -28 0 -13 -7 -15 -38 -9 -34
5 -39 3 -55 -24 -9 -16 -24 -67 -32 -112 -8 -45 -25 -105 -39 -132 -31 -59
-31 -56 -6 -50 35 9 24 -38 -25 -107 -43 -61 -73 -135 -61 -148 3 -3 1 -11 -4
-17 -6 -7 -11 -62 -13 -122 -3 -95 -6 -113 -24 -132 -27 -29 -31 -51 -31 -184
0 -102 -2 -112 -22 -127 -19 -14 -23 -29 -27 -96 -10 -158 -8 -197 15 -242 15
-28 18 -41 10 -40 -10 2 -14 -19 -16 -79 -3 -75 -1 -87 31 -156 27 -58 32 -77
22 -81 -29 -11 3 -331 36 -372 5 -6 6 -13 3 -17 -3 -3 4 -32 15 -64 12 -32 30
-103 41 -158 26 -128 63 -204 110 -227 19 -10 54 -36 78 -59 46 -46 58 -47 42
-4 l-10 27 37 -7 c21 -4 39 -8 40 -9 1 -1 5 -20 8 -42 5 -36 4 -37 -9 -20 -17
21 -36 13 -36 -15 0 -11 12 -48 26 -82 15 -34 27 -71 29 -82 2 -24 116 -195
228 -342 42 -56 77 -104 77 -106 0 -2 56 -62 125 -132 79 -81 126 -123 129
-114 3 8 6 22 8 31 3 16 7 15 36 -8 17 -14 32 -32 32 -40 0 -12 -4 -12 -31 1
-30 16 -30 16 -19 -5 12 -23 40 -36 86 -41 32 -4 54 -16 54 -31 0 -6 -17 -7
-42 -3 l-43 6 30 -26 c30 -25 51 -33 41 -16 -9 13 73 -7 106 -27 17 -10 28
-25 28 -39 0 -16 18 -34 71 -68 39 -25 73 -44 75 -42 3 2 0 16 -5 31 l-11 26
34 -14 c19 -8 37 -12 40 -9 3 3 22 -8 43 -24 58 -46 137 -87 253 -132 58 -23
112 -45 121 -50 9 -5 45 -12 82 -16 36 -3 95 -14 131 -24 l66 -18 -6 23 c-5
19 -2 24 13 24 13 0 22 -11 28 -32 9 -29 20 -36 90 -65 44 -18 86 -41 93 -50
6 -9 12 -11 12 -5 0 8 21 12 64 12 36 0 76 4 91 10 14 5 24 6 21 2 -14 -22 20
-30 169 -37 207 -11 411 -12 421 -3 4 4 1 14 -6 23 -23 27 13 27 71 0 l54 -25
28 31 c21 23 34 29 52 25 17 -4 22 -2 21 11 0 11 6 18 19 18 174 7 362 69 715
235 91 42 215 97 277 121 83 32 110 46 102 55 -6 8 -5 13 6 18 8 3 15 10 15
16 0 6 -4 9 -9 6 -7 -5 -21 14 -21 28 0 1 34 13 76 26 54 17 78 30 84 45 4 11
32 45 62 76 30 30 55 63 55 72 0 21 -13 22 -21 1 -5 -13 -9 -12 -27 4 -13 13
-47 24 -92 30 -39 6 -73 16 -75 22 -6 16 -32 12 -32 -5 0 -18 -37 -37 -114
-60 -39 -11 -71 -28 -93 -50 -18 -18 -36 -29 -39 -23 -3 5 -14 -3 -24 -19 -10
-16 -33 -35 -51 -42 -19 -7 -68 -30 -109 -51 -43 -22 -140 -56 -228 -80 -124
-35 -150 -45 -141 -56 9 -11 5 -14 -25 -14 -25 0 -36 -4 -36 -15 0 -31 -204
-70 -248 -46 -28 15 -51 5 -45 -20 6 -22 -7 -25 -25 -7 -10 10 -14 8 -18 -9
-6 -21 -28 -24 -54 -8 -15 9 -12 25 5 25 8 0 15 5 15 10 0 24 -173 -3 -190
-30 -7 -11 -122 -20 -330 -25 -160 -3 -214 -10 -204 -27 8 -13 -73 -2 -127 18
-24 9 -80 18 -123 19 -70 3 -82 6 -98 27 -10 13 -18 29 -18 36 0 19 -92 15
-141 -8 -44 -19 -44 -19 -51 1 -4 11 -12 18 -17 14 -6 -3 -28 -7 -50 -10 -35
-3 -39 -1 -44 22 -3 18 1 26 16 32 19 7 18 10 -19 34 -22 15 -77 38 -122 51
-86 25 -112 39 -112 62 0 21 -17 25 -34 9 -21 -22 -10 -43 35 -66 48 -24 50
-39 5 -39 -57 0 -92 28 -121 95 -31 73 -89 138 -138 154 -21 7 -42 21 -47 32
-6 10 -19 19 -30 19 -10 0 -30 5 -43 11 -16 7 -31 8 -42 2 -15 -9 -13 -13 17
-32 33 -22 32 -23 -34 -5 -29 8 -88 46 -88 57 0 5 13 6 30 2 39 -9 32 13 -13
40 -24 15 -28 20 -15 23 10 2 38 -11 63 -28 46 -32 105 -60 126 -60 20 0 -13
32 -48 47 -24 9 -31 17 -26 30 5 13 2 15 -11 10 -22 -9 -42 2 -95 52 -24 23
-48 41 -53 41 -5 0 -8 6 -5 13 2 6 -5 18 -17 25 -20 12 -19 13 12 9 27 -3 33
0 38 20 4 13 3 27 0 31 -4 3 -9 -4 -13 -17 -4 -14 -11 -20 -20 -17 -8 3 -17 6
-19 6 -3 0 -3 4 1 9 3 5 -3 12 -13 15 -10 4 -28 26 -40 50 -22 43 -52 78 -52
59 0 -5 7 -19 16 -32 15 -21 15 -24 -4 -41 -20 -19 -21 -19 -47 7 -22 23 -26
34 -24 77 3 53 -11 91 -51 136 l-22 25 7 -25 c4 -14 10 -32 12 -40 4 -13 4
-13 -6 0 -6 8 -18 39 -27 68 -9 29 -24 57 -35 62 -10 6 -19 9 -20 8 0 -2 -2
-11 -4 -21 -5 -27 -15 -34 -15 -10 0 14 -13 26 -40 38 -41 18 -50 30 -28 37 9
3 4 16 -15 41 -21 28 -35 37 -58 37 -17 0 -32 6 -36 15 -8 23 1 27 31 16 31
-12 34 -1 5 25 -20 18 -20 18 0 25 18 7 17 10 -14 44 -19 20 -40 53 -46 75
-11 35 -15 38 -38 34 -38 -8 -63 23 -55 65 5 24 9 29 20 21 7 -6 11 -20 9 -30
-3 -13 4 -19 25 -22 27 -4 28 -3 23 30 -8 46 -53 128 -63 112 -5 -7 -18 2 -39
28 -35 45 -38 54 -14 45 14 -6 13 0 -6 30 -22 36 -22 37 -3 37 11 0 25 -7 32
-15 21 -26 33 -16 15 12 -53 81 -55 87 -40 117 21 40 20 46 -25 133 -21 43
-41 90 -44 105 -2 15 -8 33 -11 39 -4 6 -9 61 -10 122 -2 62 -8 124 -13 139
-9 22 -7 31 14 55 37 43 27 77 -15 51 -28 -17 -43 0 -45 48 -1 28 3 37 17 40
44 6 46 11 24 55 -11 24 -22 67 -23 98 -2 39 -1 47 4 26 l7 -30 17 24 17 24
20 -46 c20 -46 21 -47 41 -30 16 14 18 19 6 21 -22 5 -45 63 -41 102 13 110
12 120 -8 152 -10 18 -16 30 -12 26 10 -9 34 21 35 43 0 9 -9 27 -20 41 -10
14 -21 36 -24 50 -5 29 21 88 37 85 7 -1 12 13 12 33 0 19 2 37 6 40 3 3 15
33 27 67 16 49 19 70 11 95 -6 22 -6 34 1 36 5 2 10 22 10 43 0 26 4 38 10 34
10 -6 6 -67 -5 -86 -3 -4 8 -3 25 3 36 12 47 32 49 89 1 9 10 27 22 40 19 23
20 23 10 2 -16 -31 -14 -34 17 -22 27 10 122 104 122 121 0 5 -10 2 -22 -6
-13 -8 -33 -17 -45 -21 -20 -5 -23 -3 -23 19 0 13 7 31 15 40 18 17 20 40 3
30 -6 -4 1 9 16 29 29 38 40 44 51 27 15 -24 27 5 21 50 -8 57 9 77 69 82 28
2 41 8 43 21 3 13 -3 17 -28 17 l-32 0 17 26 c9 14 25 34 35 44 11 11 38 56
60 100 22 44 45 80 50 80 6 0 9 -3 8 -7 -2 -5 1 -10 7 -13 5 -3 12 9 15 25 3
17 10 29 15 28 9 -2 11 14 5 47 -2 8 0 28 5 43 6 23 22 35 81 62 40 18 79 43
86 54 11 18 14 19 29 5 16 -14 21 -9 68 79 48 88 54 95 93 106 37 12 40 15 25
26 -23 16 -21 31 8 90 l24 50 -1 -46 c-1 -55 8 -75 26 -60 7 6 16 8 19 4 4 -3
9 2 13 11 6 15 9 15 30 1 28 -18 34 -19 34 -2 0 7 28 21 64 31 62 18 67 22
101 77 45 74 115 156 162 191 l36 27 18 -36 c23 -45 23 -43 2 -43 -9 0 -43
-20 -74 -45 -32 -25 -62 -45 -68 -45 -6 0 -11 -4 -11 -10 0 -5 7 -10 16 -10
11 0 14 -5 10 -17 -6 -16 -6 -16 11 -1 14 13 23 14 36 6 13 -7 22 -7 30 1 8 8
5 11 -13 11 -23 0 -23 1 9 34 32 33 36 34 87 29 52 -6 66 1 44 23 -15 15 13
37 83 68 63 27 76 14 16 -16 -19 -9 -29 -18 -24 -18 6 -1 18 -3 27 -5 11 -2
33 15 60 47 23 28 44 46 46 39 2 -7 9 -8 21 -2 26 14 102 21 95 9 -8 -12 20
-8 166 22 58 12 123 31 144 41 22 10 41 19 43 19 2 0 1 -17 -3 -37 l-6 -38 36
40 c72 77 169 176 172 173 1 -2 6 -25 9 -52 10 -70 -1 -113 -32 -129 l-26 -14
26 -5 c31 -6 106 -3 113 5 3 3 -2 19 -11 37 -20 39 -10 54 15 23 10 -13 24
-23 32 -23 7 0 24 -9 38 -20 33 -26 45 -25 46 5 1 14 7 32 14 40 15 18 41 20
35 3 -9 -27 -13 -68 -7 -68 4 0 25 12 47 25 42 26 60 32 50 16 -3 -6 0 -24 7
-42 11 -25 20 -32 48 -35 19 -1 50 -5 68 -8 24 -5 32 -3 32 9 0 8 9 15 20 15
11 0 47 14 80 30 69 35 127 41 115 13 -17 -39 -17 -80 0 -97 16 -16 20 -15 59
17 60 50 78 57 101 44 18 -9 19 -9 6 6 -12 15 -8 19 34 38 31 14 56 18 73 14
15 -4 38 -9 51 -11 13 -3 33 -10 44 -16 19 -10 16 -13 -29 -30 -27 -11 -53
-21 -59 -23 -5 -1 -17 -5 -25 -8 -8 -3 -52 -18 -97 -32 -46 -15 -83 -30 -83
-34 0 -11 40 -51 50 -51 6 0 10 -5 10 -10 0 -6 -11 -8 -25 -6 -45 8 -27 -9 49
-46 51 -25 76 -33 79 -25 2 7 32 14 72 17 97 7 96 27 -2 35 -101 8 -111 12
-92 29 21 19 76 36 121 36 40 0 108 -23 108 -37 0 -4 -17 -24 -37 -45 l-37
-38 29 0 c39 0 75 -10 75 -21 0 -4 -10 -6 -22 -4 -22 4 -22 4 -4 -10 11 -8 26
-16 33 -16 7 -1 18 -3 23 -4 6 -1 24 -3 41 -4 34 -1 67 -33 97 -91 9 -19 21
-34 27 -33 5 1 15 22 21 46 15 59 63 152 91 179 l23 22 29 -35 c39 -45 85
-135 76 -149 -3 -6 -29 -22 -56 -35 -53 -28 -68 -59 -23 -51 19 4 24 1 21 -8
-8 -19 21 -56 38 -50 8 3 28 -4 46 -17 l31 -22 -12 24 c-7 15 5 7 34 -23 34
-35 48 -43 53 -33 11 18 76 25 125 12 32 -8 37 -13 32 -29 -4 -14 4 -30 28
-57 19 -20 68 -84 108 -143 58 -85 71 -112 66 -132 -5 -19 -2 -26 14 -31 11
-3 25 -16 31 -27 11 -21 11 -21 -16 1 -22 17 -30 19 -37 9 -12 -20 -10 -25 15
-32 13 -3 43 -21 68 -41 51 -40 59 -42 59 -15 0 11 -22 43 -50 71 -27 28 -50
52 -50 55 0 2 15 4 33 4 46 0 147 -52 197 -102 36 -36 39 -43 26 -56 -22 -22
25 -92 90 -134 52 -33 96 -91 87 -115 -3 -7 2 -13 11 -13 21 0 21 -34 0 -51
-9 -7 -29 -14 -44 -15 -31 -3 -36 5 -65 109 -15 57 -32 80 -23 32 6 -30 -7
-23 -33 19 -39 63 -19 -6 42 -147 34 -78 70 -173 80 -211 19 -68 53 -121 71
-110 5 3 6 20 2 37 l-6 32 24 -22 c13 -13 29 -23 35 -23 13 0 39 -34 72 -93
22 -39 28 -97 11 -97 -5 0 -10 11 -10 24 0 14 -3 27 -8 29 -15 10 -12 -126 3
-150 20 -30 31 -29 40 4 l7 28 18 -25 c37 -49 71 -120 73 -154 2 -26 5 -32 15
-24 6 6 12 16 12 22 0 6 6 22 13 36 7 14 14 41 15 60 2 33 2 34 -13 15 -8 -11
-13 -25 -11 -32 3 -7 1 -13 -3 -13 -5 0 -14 24 -21 52 -9 45 -8 54 4 64 13 9
12 13 -9 22 -25 12 -25 14 -21 102 2 52 0 88 -5 84 -5 -3 -13 6 -19 20 -12 32
-24 33 -36 5 -9 -19 -13 -16 -46 37 -48 79 -62 108 -50 100 21 -13 23 16 3 33
-18 16 -19 22 -10 50 11 32 24 40 32 19 2 -7 7 -10 10 -7 4 3 -2 29 -13 57
-11 29 -20 60 -20 70 0 33 -48 118 -111 197 -35 44 -72 96 -82 116 -10 20 -30
49 -44 65 -56 62 -68 77 -55 70 25 -15 23 23 -3 61 -24 34 -27 35 -23 12 7
-37 -21 -28 -50 17 -26 40 -24 51 7 34 34 -18 24 6 -16 36 -20 15 -67 58 -104
94 -54 54 -66 71 -62 91 6 31 -33 121 -42 97 -5 -12 -16 -6 -56 34 -27 27 -49
53 -49 57 0 5 -11 25 -25 45 -21 31 -22 36 -7 37 10 0 6 4 -9 9 -15 4 -54 26
-88 49 -55 37 -60 44 -57 72 3 25 -1 32 -23 41 -33 13 -54 17 -116 23 l-50 5
44 -13 c38 -11 41 -14 28 -25 -13 -11 -25 -8 -71 19 -31 17 -61 40 -67 50 -11
22 -34 26 -26 5 12 -29 -84 17 -114 55 -32 40 -65 54 -101 40 -26 -9 -48 -4
-48 11 0 5 9 7 19 3 11 -3 26 1 35 11 24 24 14 27 -32 11 -40 -14 -41 -14 -72
18 -16 17 -27 34 -24 38 4 4 -3 7 -16 7 -64 0 -292 53 -324 75 -11 8 -30 15
-42 15 -12 0 -38 11 -58 25 -20 13 -36 20 -36 15 0 -6 -14 -10 -31 -10 -19 0
-28 4 -24 11 4 6 13 8 21 5 8 -3 14 -1 14 3 0 14 -29 21 -36 9 -4 -7 -10 -5
-16 6 -5 9 -20 16 -34 16 -21 0 -24 -3 -18 -25 7 -29 -7 -32 -47 -13 l-26 12
26 23 26 22 -32 1 c-20 0 -41 -8 -53 -20 -24 -24 -39 -25 -46 -5 -4 9 -14 13
-23 11 -9 -3 -40 -7 -69 -10 -59 -6 -102 -15 -117 -25 -5 -3 -36 -6 -67 -6
-50 0 -58 3 -68 23 -10 23 -12 23 -35 8 -78 -50 -70 -48 -95 -28 -21 17 -21
19 -6 34 23 24 8 27 -39 10z m1433 -319 c63 -38 102 -66 98 -70 -6 -7 -77 32
-111 61 -34 29 -27 34 13 9z m-2814 -213 c10 7 17 6 26 -5 17 -21 6 -43 -22
-40 -13 1 -39 3 -57 4 l-35 1 35 36 c31 33 34 34 37 14 3 -16 7 -19 16 -10z
m-830 -1205 c3 -9 0 -15 -9 -15 -8 0 -15 7 -15 15 0 8 4 15 9 15 5 0 11 -7 15
-15z m-48 -42 c-10 -10 -19 5 -10 18 6 11 8 11 12 0 2 -7 1 -15 -2 -18z"/>
<path d="M4370 6312 c0 -4 12 -13 27 -19 21 -10 28 -10 34 -1 5 7 7 13 6 14
-6 6 -67 11 -67 6z"/>
<path d="M3375 6125 l-30 -24 25 -1 c35 0 77 29 59 41 -19 12 -20 12 -54 -16z"/>
<path d="M4434 6095 c-16 -13 -17 -16 -4 -25 22 -14 27 -12 33 10 7 26 -6 33
-29 15z"/>
<path d="M1409 5535 c-3 -2 -17 -6 -31 -9 -55 -9 -71 -38 -27 -48 18 -4 83 48
70 56 -4 3 -10 4 -12 1z"/>
<path d="M5839 5368 c-10 -34 -5 -45 27 -66 l36 -23 -7 33 c-4 18 -14 39 -23
46 -14 11 -31 16 -33 10z"/>
<path d="M1648 5281 c-22 -51 -22 -54 1 -68 16 -10 22 -8 36 7 10 11 15 26 12
34 -3 8 1 20 9 26 27 23 9 37 -23 17 -7 -4 -13 -1 -15 8 -2 10 -10 -1 -20 -24z"/>
<path d="M5930 5202 c0 -15 48 -54 61 -50 8 3 3 13 -13 31 -25 26 -48 35 -48
19z"/>
<path d="M2965 4594 c-5 -1 -23 -5 -38 -9 -38 -8 -77 -51 -77 -86 0 -15 12
-42 27 -59 27 -32 28 -32 87 -24 101 13 174 13 222 -2 138 -41 263 -153 364
-324 17 -28 30 -52 30 -53 0 -1 -417 -2 -926 -2 -509 1 -927 -2 -929 -5 -2 -3
8 -32 22 -63 l26 -57 93 0 c91 0 93 0 88 -22 -3 -13 -6 -93 -8 -178 l-3 -155
-61 -6 c-34 -3 -68 -12 -77 -19 -74 -61 125 -329 236 -318 44 4 59 36 60 126
0 38 4 73 7 79 4 5 23 10 42 10 19 1 111 2 204 3 l169 2 0 -244 c-1 -133 -2
-252 -2 -263 -1 -12 -14 -29 -31 -39 -157 -92 -144 -320 23 -435 23 -15 56
-32 72 -36 83 -22 191 -7 268 38 l45 27 -30 55 c-16 30 -33 57 -38 60 -5 3
-35 -8 -67 -24 -100 -51 -177 -61 -232 -31 -25 13 -52 73 -47 102 3 12 5 28 5
35 2 23 56 76 96 94 23 11 63 19 98 19 31 0 57 3 57 7 0 26 -36 126 -47 130
-21 8 -19 883 2 924 28 53 47 59 197 59 l138 0 23 -37 c28 -46 62 -139 76
-210 17 -83 8 -221 -17 -269 -29 -56 -43 -65 -109 -70 -48 -3 -62 -8 -82 -31
-20 -22 -22 -34 -17 -71 13 -94 76 -155 160 -155 81 0 116 24 160 111 74 146
69 460 -9 669 l-24 63 167 0 167 0 -3 -524 -4 -523 44 -20 c23 -11 60 -27 80
-36 l37 -16 0 505 c0 517 3 557 39 594 11 11 43 16 114 18 54 2 98 7 97 10 0
4 -12 32 -27 62 l-27 55 -98 1 c-84 0 -99 3 -112 20 -8 10 -15 25 -15 32 -1
37 -112 201 -186 276 -104 103 -237 187 -348 217 -39 11 -130 19 -151 13z
m-434 -704 c-2 -8 -5 -85 -7 -170 -1 -85 -3 -158 -3 -162 -1 -5 -95 -8 -211
-8 l-209 0 2 143 c2 154 12 187 60 207 12 5 101 8 197 7 150 -2 174 -4 171
-17z"/>
<path d="M6376 4203 c-14 -15 -4 -33 19 -33 17 0 23 4 19 14 -6 16 -29 28 -38
19z"/>
<path d="M4230 4028 c-187 -33 -219 -260 -57 -403 52 -47 173 -115 202 -115
27 0 28 -28 2 -73 -35 -59 -84 -105 -125 -116 -52 -15 -62 -7 -55 48 10 83
-37 142 -115 143 -52 1 -89 -25 -104 -73 -18 -60 2 -113 66 -174 29 -27 74
-86 100 -130 81 -134 163 -230 280 -329 l58 -49 65 65 c36 36 63 70 59 76 -3
5 -32 22 -63 37 -126 60 -231 138 -289 214 -39 50 -42 61 -15 61 10 0 51 17
91 37 112 58 216 183 256 310 33 105 25 244 -20 330 -17 34 -82 95 -123 117
-51 26 -144 37 -213 24z m148 -88 c48 -45 66 -98 66 -200 0 -52 -2 -110 -4
-128 -4 -29 -7 -32 -28 -27 -38 9 -97 51 -130 90 -65 79 -68 208 -6 269 22 22
76 20 102 -4z"/>
<path d="M4630 4034 c0 -2 12 -30 26 -63 l27 -61 104 0 103 0 -6 -27 c-8 -35
-12 -1010 -5 -1021 9 -11 151 -72 151 -64 0 4 0 235 0 513 1 457 2 509 18 540
24 47 54 59 151 59 62 0 82 3 78 13 -3 6 -15 35 -27 62 l-21 51 -299 0 c-165
0 -300 -1 -300 -2z"/>
<path d="M6400 3748 c0 -23 3 -29 9 -19 8 12 4 51 -5 51 -2 0 -4 -15 -4 -32z"/>
<path d="M5930 2589 c0 -5 5 -7 10 -4 6 3 10 8 10 11 0 2 -4 4 -10 4 -5 0 -10
-5 -10 -11z"/>
<path d="M1353 2239 c-12 -12 -6 -49 8 -49 5 0 9 14 9 30 0 33 -1 35 -17 19z"/>
<path d="M2200 1386 c0 -3 13 -19 28 -36 25 -27 30 -29 41 -16 10 12 6 18 -28
36 -23 11 -41 18 -41 16z"/>
<path d="M2622 1110 c-17 -27 7 -27 39 0 l24 19 -25 1 c-15 0 -30 -8 -38 -20z"/>
</g>
</svg>
